# xmcd CD database file
#
# Track frame offsets:
#	150
#	35192
#	70502
#	99320
#	105395
#	145082
#	178415
#	185610
#	212327
#	244735
#
# Disc length: 3407 seconds
#
# Revision: 3
# Processed by: cddbd v1.5PL3 Copyright (c) Steve Scherf et al.
# Submitted via: CDex 1.51
#
DISCID=880d4d0a
DTITLE=Positive Rhythmic Force - The Question Is
DYEAR=1900
DGENRE=Jazz
TTITLE0=Inside Game
TTITLE1=The Question Is
TTITLE2=Scintillating Blue
TTITLE3=Blues for the Spirits - Part One
TTITLE4=Cowboy Coffee
TTITLE5=Mack the Knife
TTITLE6=Blues for the Spirits - Part Two
TTITLE7=Whose Mind Has?
TTITLE8=For Tranquility
TTITLE9=Blues for the Spirits - Part Three
EXTD=
EXTT0=
EXTT1=
EXTT2=
EXTT3=
EXTT4=
EXTT5=
EXTT6=
EXTT7=
EXTT8=
EXTT9=
PLAYORDER=
